<svg xmlns="http://www.w3.org/2000/svg" id="Layer_1" viewBox="0 0 64 64"><path fill="#90cff1" d="M49.678 17.858l-3.536-3.536a.999.999 0 0 1 0-1.414l2.121-2.121a.999.999 0 0 1 1.414 0l3.536 3.536a.999.999 0 0 1 0 1.414l-2.121 2.121a1 1 0 0 1-1.414 0zM14.322 46.142l3.536 3.536a.999.999 0 0 1 0 1.414l-2.121 2.121a.999.999 0 0 1-1.414 0l-3.536-3.536a.999.999 0 0 1 0-1.414l2.121-2.121a.999.999 0 0 1 1.414 0zM46.142 49.678l3.536-3.536a.999.999 0 0 1 1.414 0l2.121 2.121a.999.999 0 0 1 0 1.414l-3.536 3.536a.999.999 0 0 1-1.414 0l-2.121-2.121a1 1 0 0 1 0-1.414zM17.858 14.322l-3.536 3.536a.999.999 0 0 1-1.414 0l-2.121-2.121a.999.999 0 0 1 0-1.414l3.536-3.536a.999.999 0 0 1 1.414 0l2.121 2.121a.999.999 0 0 1 0 1.414zM54.5 34.5v-5a1 1 0 0 1 1-1h3a1 1 0 0 1 1 1v5a1 1 0 0 1-1 1h-3a1 1 0 0 1-1-1zM9.5 29.5v5a1 1 0 0 1-1 1h-3a1 1 0 0 1-1-1v-5a1 1 0 0 1 1-1h3a1 1 0 0 1 1 1zM29.5 54.5h5a1 1 0 0 1 1 1v3a1 1 0 0 1-1 1h-5a1 1 0 0 1-1-1v-3a1 1 0 0 1 1-1z"/><circle cx="32" cy="32" r="14" fill="#f7b546"/><circle cx="32" cy="32" r="10.889" fill="#f4a033"/><path fill="#f29525" d="M35.777 31.239c.434-.639.688-1.41.688-2.239 0-2.206-1.794-4-4-4h-3a1 1 0 0 0-1 1v12a1 1 0 0 0 1 1h5c2.206 0 4-1.794 4-4-.001-1.744-1.129-3.214-2.688-3.761zM30.464 27h2c1.103 0 2 .897 2 2s-.897 2-2 2h-2v-4zm4 10h-4v-4h4c1.103 0 2 .897 2 2s-.897 2-2 2z"/><path fill="#f29525" d="M32 21.111c.35 0 .695.02 1.037.052-5.527.523-9.852 5.173-9.852 10.837s4.325 10.314 9.852 10.837a11.11 11.11 0 0 1-1.037.052c-6.014 0-10.889-4.875-10.889-10.889S25.986 21.111 32 21.111z"/><path fill="#ffcc5c" d="M20.234 39.583c.178.276.368.544.564.806l18.708-19.995a14.15 14.15 0 0 0-.79-.564L20.234 39.583z"/><path fill="#f7b546" d="M23.848 35.721l-1.404 1.501c.16.293.336.575.522.851l1.29-1.379a11.885 11.885 0 0 1-.408-.973z"/><path fill="#ffcc5c" d="M19.43 38.166l17.888-19.118a13.9 13.9 0 0 0-3.405-.915l-15.626 16.7c.241 1.172.63 2.289 1.143 3.333z"/><path fill="#f7b546" d="M23.185 32c0-.969.135-1.905.373-2.8l-2.437 2.605c-.001.065-.01.129-.01.195 0 1.292.237 2.526.65 3.675l1.605-1.716A10.896 10.896 0 0 1 23.185 32zM33.037 21.163A11.11 11.11 0 0 0 32 21.111c-.309 0-.614.021-.916.046l-.509.544a10.866 10.866 0 0 1 2.462-.538zM32.008 27h.457c.258 0 .502.053.729.142l1.412-1.509a3.977 3.977 0 0 0-.922-.423L32.008 27zM30.464 30.059V28.65l-2 2.137v1.409z"/><path fill="#90cff1" d="M34.5 9.5h-5a1 1 0 0 1-1-1v-3a1 1 0 0 1 1-1h5a1 1 0 0 1 1 1v3a1 1 0 0 1-1 1z"/><path fill="#72b7e5" d="M32 8a2 2 0 0 1-2-2V4.5h-.5a1 1 0 0 0-1 1v3a1 1 0 0 0 1 1h5a1 1 0 0 0 1-1V8H32zM32 56a2 2 0 0 1 2 2v1.5h.5a1 1 0 0 0 1-1v-3a1 1 0 0 0-1-1h-5a1 1 0 0 0-1 1v.5H32zM56 32a2 2 0 0 1 2-2h1.5v-.5a1 1 0 0 0-1-1h-3a1 1 0 0 0-1 1v5a1 1 0 0 0 1 1h.5V32zM8 32a2 2 0 0 1-2 2H4.5v.5a1 1 0 0 0 1 1h3a1 1 0 0 0 1-1v-5a1 1 0 0 0-1-1H8V32zM48.971 48.97a2 2 0 0 1 2.828 0l1.061 1.061.353-.353a.999.999 0 0 0 0-1.414l-2.121-2.121a.999.999 0 0 0-1.414 0l-3.536 3.536a.999.999 0 0 0 0 1.414l.353.353 2.476-2.476zM15.03 15.029a2 2 0 0 1-2.828 0l-1.061-1.061-.353.353a.999.999 0 0 0 0 1.414l2.121 2.121a.999.999 0 0 0 1.414 0l3.536-3.536a.999.999 0 0 0 0-1.414l-.353-.353-2.476 2.476zM15.03 48.97a2 2 0 0 1 0 2.828l-1.061 1.061.353.353a.999.999 0 0 0 1.414 0l2.121-2.121a.999.999 0 0 0 0-1.414l-3.536-3.536a.999.999 0 0 0-1.414 0l-.353.353 2.476 2.476zM48.97 15.029a2 2 0 0 1 0-2.828l1.061-1.061-.353-.353a.999.999 0 0 0-1.414 0l-2.121 2.121a.999.999 0 0 0 0 1.414l3.536 3.536a.999.999 0 0 0 1.414 0l.353-.353-2.476-2.476z"/><path fill="#f7b546" d="M31.964 24a.5.5 0 0 0-.5.5v.5h-2v-.5a.5.5 0 0 0-1 0v1a.5.5 0 0 0 .5.5h1.849l1.601-1.711a.496.496 0 0 0-.45-.289z"/><path fill="#f29525" d="M31.964 40a.5.5 0 0 1-.5-.5V39h-2v.5a.5.5 0 0 1-1 0v-1a.5.5 0 0 1 .5-.5h3a.5.5 0 0 1 .5.5v1a.5.5 0 0 1-.5.5z"/><path fill="#024665" d="M32 43.5c6.341 0 11.5-5.159 11.5-11.5S38.341 20.5 32 20.5 20.5 25.659 20.5 32 25.659 43.5 32 43.5zm0-22c5.79 0 10.5 4.71 10.5 10.5S37.79 42.5 32 42.5 21.5 37.79 21.5 32 26.21 21.5 32 21.5zM29.5 10h5c.827 0 1.5-.673 1.5-1.5v-3c0-.827-.673-1.5-1.5-1.5h-5c-.827 0-1.5.673-1.5 1.5v3c0 .827.673 1.5 1.5 1.5zM29 5.5a.5.5 0 0 1 .5-.5h5a.5.5 0 0 1 .5.5v3a.5.5 0 0 1-.5.5h-5a.5.5 0 0 1-.5-.5v-3zM34.5 54h-5c-.827 0-1.5.673-1.5 1.5v3c0 .827.673 1.5 1.5 1.5h5c.827 0 1.5-.673 1.5-1.5v-3c0-.827-.673-1.5-1.5-1.5zm.5 4.5a.5.5 0 0 1-.5.5h-5a.5.5 0 0 1-.5-.5v-3a.5.5 0 0 1 .5-.5h5a.5.5 0 0 1 .5.5v3zM58.5 28h-3c-.827 0-1.5.673-1.5 1.5v5c0 .827.673 1.5 1.5 1.5h3c.827 0 1.5-.673 1.5-1.5v-5c0-.827-.673-1.5-1.5-1.5zm.5 6.5a.5.5 0 0 1-.5.5h-3a.5.5 0 0 1-.5-.5v-5a.5.5 0 0 1 .5-.5h3a.5.5 0 0 1 .5.5v5zM10 29.5c0-.827-.673-1.5-1.5-1.5h-3c-.827 0-1.5.673-1.5 1.5v5c0 .827.673 1.5 1.5 1.5h3c.827 0 1.5-.673 1.5-1.5v-5zm-1 5a.5.5 0 0 1-.5.5h-3a.5.5 0 0 1-.5-.5v-5a.5.5 0 0 1 .5-.5h3a.5.5 0 0 1 .5.5v5zM49.324 18.211c.292.292.677.438 1.061.438.384 0 .769-.146 1.061-.438l2.122-2.122a1.501 1.501 0 0 0 0-2.121l-3.536-3.536a1.501 1.501 0 0 0-2.121 0l-2.122 2.121a1.504 1.504 0 0 0 0 2.122l3.535 3.536zm-2.828-4.95l2.122-2.121a.5.5 0 0 1 .707 0l3.536 3.536a.5.5 0 0 1 0 .707l-2.122 2.122a.501.501 0 0 1-.707 0l-3.535-3.535a.502.502 0 0 1-.001-.709zM14.676 45.789c-.566-.566-1.555-.567-2.121 0l-2.121 2.121a1.502 1.502 0 0 0 0 2.122l3.535 3.535a1.498 1.498 0 0 0 2.122 0l2.121-2.121a1.49 1.49 0 0 0 .439-1.061 1.49 1.49 0 0 0-.439-1.061l-3.536-3.535zm2.828 4.949l-2.121 2.121a.5.5 0 0 1-.708 0l-3.535-3.535a.502.502 0 0 1 0-.708l2.121-2.121a.5.5 0 0 1 .707 0l3.536 3.536a.491.491 0 0 1 .146.353.49.49 0 0 1-.146.354zM51.446 45.789c-.566-.566-1.555-.567-2.122 0l-3.536 3.536a1.503 1.503 0 0 0 0 2.121l2.122 2.121c.292.292.676.438 1.061.438s.768-.146 1.061-.438l3.536-3.535a1.502 1.502 0 0 0 0-2.122l-2.122-2.121zm1.414 3.535l-3.536 3.535a.501.501 0 0 1-.707 0l-2.121-2.121a.5.5 0 0 1 0-.707l3.536-3.536a.5.5 0 0 1 .708 0l2.122 2.121a.503.503 0 0 1-.002.708zM12.555 18.212c.292.292.677.438 1.061.438.384 0 .769-.146 1.061-.438l3.536-3.536a1.502 1.502 0 0 0 0-2.122l-2.121-2.121a1.503 1.503 0 0 0-2.122 0l-3.535 3.536a1.501 1.501 0 0 0 0 2.121l2.12 2.122zm-1.414-3.536l3.535-3.536a.498.498 0 0 1 .708 0l2.121 2.121a.502.502 0 0 1 0 .708l-3.536 3.536a.502.502 0 0 1-.707 0l-2.121-2.122a.5.5 0 0 1 0-.707z"/><path fill="#024665" d="M50.031 42.96a.5.5 0 0 0-.707 0l-2.653 2.653-2.195-5.3a14.899 14.899 0 0 0 2.231-5.372L52 32.748V36.5a.5.5 0 0 0 1 0v-9a.5.5 0 0 0-1 0v3.752l-5.293-2.193a14.925 14.925 0 0 0-2.226-5.365l2.197-5.301 2.647 2.647a.498.498 0 0 0 .708 0 .5.5 0 0 0 0-.707l-6.364-6.364a.5.5 0 0 0-.707.707l2.653 2.653-5.3 2.196a14.934 14.934 0 0 0-5.372-2.231L32.748 12H36.5a.5.5 0 0 0 0-1h-9a.5.5 0 0 0 0 1h3.752l-2.193 5.293a14.899 14.899 0 0 0-5.372 2.231l-5.3-2.195 2.653-2.653a.5.5 0 0 0-.707-.707l-3.182 3.181h-.001l-3.182 3.182a.5.5 0 0 0 .708.707l2.653-2.653 2.195 5.3a14.906 14.906 0 0 0-2.231 5.372L12 31.252V27.5a.5.5 0 0 0-1 0v9a.5.5 0 0 0 1 0v-3.752l5.293 2.192a14.911 14.911 0 0 0 2.231 5.373l-2.195 5.3-2.653-2.653a.5.5 0 0 0-.707.707l6.364 6.364a.498.498 0 0 0 .708 0 .5.5 0 0 0 0-.707l-2.653-2.653 5.3-2.195a14.911 14.911 0 0 0 5.373 2.231L31.252 52H27.5a.5.5 0 0 0 0 1h9a.5.5 0 0 0 0-1h-3.752l2.194-5.294c1.953-.39 3.77-1.16 5.371-2.231l5.3 2.196-2.653 2.653a.5.5 0 0 0 .708.707l6.364-6.364a.5.5 0 0 0-.001-.707zm-3.146-12.745L51.193 32l-4.308 1.784.003-.034c.019-.167.034-.334.048-.502.038-.422.064-.838.064-1.248 0-.408-.025-.823-.063-1.243a14.421 14.421 0 0 0-.052-.542zm-5.62-10.003l4.317-1.788-1.789 4.317c-.031-.039-.068-.073-.1-.112-.331-.412-.679-.81-1.05-1.185l-.058-.061c-.382-.381-.79-.736-1.211-1.075-.038-.03-.071-.066-.109-.096zm-11.049-3.098L32 12.807l1.785 4.308-.028-.003c-.171-.02-.342-.035-.514-.049-.42-.038-.835-.063-1.243-.063-.41 0-.826.026-1.248.063-.168.014-.336.028-.502.048l-.034.003zm-10.004 5.621l-1.784-4.307 4.307 1.784c-.037.029-.069.064-.106.094-.428.344-.842.704-1.23 1.092l-.001.001a15.05 15.05 0 0 0-1.093 1.232c-.029.036-.064.067-.093.104zm-3.097 11.049L12.807 32l4.308-1.785-.003.028c-.02.17-.035.342-.049.514-.038.419-.063.834-.063 1.243 0 .409.025.823.063 1.243.014.172.029.344.049.515l.003.026zM32 19c7.168 0 13 5.832 13 13s-5.832 13-13 13-13-5.832-13-13 5.832-13 13-13zm-9.265 24.788l-4.307 1.784 1.784-4.307c.028.036.062.066.091.102a15.1 15.1 0 0 0 2.33 2.33c.036.029.066.062.102.091zm11.051 3.097L32 51.194l-1.784-4.309.027.003c.167.02.335.035.504.049.846.077 1.665.077 2.51 0 .166-.014.332-.029.497-.048l.032-.004zm7.479-3.097c.037-.029.068-.064.105-.093a15.4 15.4 0 0 0 1.225-1.086l.015-.015c.385-.386.743-.797 1.085-1.223.03-.037.065-.068.094-.106l1.784 4.307-4.308-1.784z"/><path fill="#024665" d="M26.536 38c0 .527.412.947.929.986v.514a.5.5 0 0 0 1 0V39h2v.5a.5.5 0 0 0 1 0V39h2c2.206 0 4-1.794 4-4 0-1.744-1.128-3.214-2.688-3.761.434-.639.688-1.41.688-2.239 0-2.206-1.794-4-4-4v-.5a.5.5 0 0 0-1 0v.5h-2v-.5a.5.5 0 0 0-1 0v.514a.993.993 0 0 0-.072 1.976v10.02a1 1 0 0 0-.857.99zm2.928-11h2c1.103 0 2 .897 2 2s-.897 2-2 2h-2v-4zm0 6h4c1.103 0 2 .897 2 2s-.897 2-2 2h-4v-4z"/></svg>