<?xml version="1.0" encoding="utf-8"?>
<!-- Generator: Adobe Illustrator 23.0.3, SVG Export Plug-In . SVG Version: 6.00 Build 0)  -->
<svg version="1.1" id="Layer_1" xmlns="http://www.w3.org/2000/svg" xmlns:xlink="http://www.w3.org/1999/xlink" x="0px" y="0px"
	 viewBox="0 0 1885 3863.4" style="enable-background:new 0 0 1885 3863.4;" xml:space="preserve">
<style type="text/css">
	.st0{fill:none;stroke:#2EC5B6;stroke-width:2;stroke-linecap:round;stroke-linejoin:round;}
	.st1{opacity:0.2;fill:none;stroke:#2EC5B6;stroke-width:2;stroke-linecap:round;stroke-linejoin:round;enable-background:new    ;}
	.st2{fill:none;stroke:#FF9F1C;stroke-width:2;stroke-linejoin:round;}
	.st3{opacity:0.2;fill:none;stroke:#FF9F1C;stroke-width:2;stroke-linejoin:round;enable-background:new    ;}
	.st4{opacity:0.2;fill-rule:evenodd;clip-rule:evenodd;fill:#2EC5B6;enable-background:new    ;}
	.st5{opacity:0.2;fill-rule:evenodd;clip-rule:evenodd;fill:#2E6BD1;enable-background:new    ;}
	.st6{fill:none;stroke:#2E6BD1;stroke-width:2;stroke-linecap:round;stroke-linejoin:round;}
	.st7{opacity:0.2;fill-rule:evenodd;clip-rule:evenodd;fill:#FF9F1C;enable-background:new    ;}
	.st8{fill:none;stroke:#FF9F1C;stroke-width:2;stroke-linecap:round;stroke-linejoin:round;}
	.st9{fill-rule:evenodd;clip-rule:evenodd;fill:#FF9F1C;fill-opacity:0.2;}
	.st10{fill:none;stroke:#2EC5B6;stroke-width:2;stroke-linecap:round;}
	.st11{opacity:0.2;}
	.st12{fill:none;stroke:#2E6BD1;stroke-width:2;stroke-linecap:round;}
	.st13{opacity:0.2;fill:none;stroke:#2E6BD1;stroke-width:2;stroke-linecap:round;enable-background:new    ;}
	
		.st14{opacity:0.2;fill:none;stroke:#2E6BD1;stroke-width:2;stroke-linecap:round;stroke-linejoin:round;enable-background:new    ;}
	.st15{fill-rule:evenodd;clip-rule:evenodd;fill:#FF9F1C;}
</style>
<g id="Page-1-fullhd-desktop">
	<g id="backgrounds-FullHD" transform="translate(0 -86)">
		<g id="color-shapes-1920" transform="translate(-24 84)">
			<g id="shape_5-copy" transform="translate(26 1132)">
				<g id="Group-9">
					<path id="Path-7" class="st0" d="M0,9.8l9.2-9l9,9l8.3-8.3l9,9L44,2l8.5,8.5"/>
					<path class="st1" d="M3,9.8l9.2-9l9,9l8.3-8.3l9,9L47,2l8.5,8.5"/>
				</g>
			</g>
			<g id="shape_5" transform="translate(1852 1132)">
				<g>
					<path class="st2" d="M0,9.8l9.2-9l9,9l8.3-8.3l9,9L44,2l8.5,8.5"/>
					<path class="st3" d="M3,9.8l9.2-9l9,9l8.3-8.3l9,9L47,2l8.5,8.5"/>
				</g>
			</g>
			<g transform="translate(1192 2348)">
				<g>
					<path class="st2" d="M0,9.8l9.2-9l9,9l8.3-8.3l9,9L44,2l8.5,8.5"/>
					<path class="st3" d="M3,9.8l9.2-9l9,9l8.3-8.3l9,9L47,2l8.5,8.5"/>
				</g>
			</g>
			<g transform="translate(27 3741)">
				<g>
					<path class="st0" d="M0,9.8l9.2-9l9,9l8.3-8.3l9,9L44,2l8.5,8.5"/>
					<path class="st1" d="M3,9.8l9.2-9l9,9l8.3-8.3l9,9L47,2l8.5,8.5"/>
				</g>
			</g>
			<g transform="translate(0 4596)">
				<g>
					<path class="st0" d="M0,9.8l9.2-9l9,9l8.3-8.3l9,9L44,2l8.5,8.5"/>
					<path class="st1" d="M3,9.8l9.2-9l9,9l8.3-8.3l9,9L47,2l8.5,8.5"/>
				</g>
			</g>
			<g id="shape_3-copy" transform="translate(1286 408)">
				<g id="Group-2-Copy-5">
					<path id="Fill-1" class="st4" d="M20.4,3.5L4.3,5.4C4,5.4,3.9,5.6,3.9,5.9c0,0.1,0,0.2,0.1,0.2l9.6,13.1
						c0.2,0.3,0.6,0.2,0.8-0.1l6.5-14.9c0.1-0.2,0-0.5-0.2-0.6C20.6,3.5,20.5,3.5,20.4,3.5"/>
					<path id="Stroke-3" class="st0" d="M18.7,0.1L1,2.1l10.6,14.3L18.7,0.1z"/>
				</g>
			</g>
			<g id="shape_3-copy-3" transform="rotate(-166 381.837 136.693)">
				<g>
					<path class="st5" d="M20.4,3.5L4.3,5.4C4,5.4,3.9,5.6,3.9,5.9c0,0.1,0,0.2,0.1,0.2l9.6,13.1c0.2,0.3,0.6,0.2,0.8-0.1l6.5-14.9
						c0.1-0.2,0-0.5-0.2-0.6C20.6,3.5,20.5,3.5,20.4,3.5"/>
					<path class="st6" d="M18.7,0.1L1,2.1l10.6,14.3L18.7,0.1z"/>
				</g>
			</g>
			<g transform="rotate(42 222.908 861.01)">
				<g>
					<path class="st4" d="M20.4,3.5L4.3,5.4C4,5.4,3.9,5.6,3.9,5.9c0,0.1,0,0.2,0.1,0.2l9.6,13.1c0.2,0.3,0.6,0.2,0.8-0.1l6.5-14.9
						c0.1-0.2,0-0.5-0.2-0.6C20.6,3.5,20.5,3.5,20.4,3.5"/>
					<path class="st0" d="M18.7,0.1L1,2.1l10.6,14.3L18.7,0.1z"/>
				</g>
			</g>
			<g id="shape_2" transform="translate(1503 132)">
				<g id="Group-4-Copy-3">
					<path id="Fill-9" class="st7" d="M16.6,8.7c0,4.3-3.5,7.8-7.8,7.8S0.9,13,0.9,8.7s3.5-7.8,7.8-7.8S16.6,4.4,16.6,8.7"/>
					<path id="Stroke-11" class="st8" d="M19.6,11.7c0,4.3-3.5,7.8-7.8,7.8S3.9,16,3.9,11.7s3.5-7.8,7.8-7.8S19.6,7.4,19.6,11.7z"/>
				</g>
			</g>
			<g transform="translate(964 627)">
				<g>
					<path class="st7" d="M16.6,8.7c0,4.3-3.5,7.8-7.8,7.8S0.9,13,0.9,8.7s3.5-7.8,7.8-7.8S16.6,4.4,16.6,8.7"/>
					<path class="st8" d="M19.6,11.7c0,4.3-3.5,7.8-7.8,7.8S3.9,16,3.9,11.7s3.5-7.8,7.8-7.8S19.6,7.4,19.6,11.7z"/>
				</g>
			</g>
			<g id="shape_2-copy" transform="translate(1545 473)">
				<g>
					<path class="st4" d="M16.6,8.7c0,4.3-3.5,7.8-7.8,7.8S0.9,13,0.9,8.7s3.5-7.8,7.8-7.8S16.6,4.4,16.6,8.7"/>
					<path class="st0" d="M19.6,11.7c0,4.3-3.5,7.8-7.8,7.8S3.9,16,3.9,11.7s3.5-7.8,7.8-7.8S19.6,7.4,19.6,11.7z"/>
				</g>
			</g>
			<g id="shape_1" transform="translate(234 1483)">
				<g id="Group-6-Copy-2">
					<path id="Fill-17" class="st9" d="M20,20.1L7.2,26c-0.3,0.1-0.6,0-0.8-0.3c0,0,0,0,0,0L0.5,13c-0.1-0.3,0-0.6,0.3-0.8
						c0,0,0,0,0,0l12.8-6c0.3-0.1,0.7,0,0.8,0.3c0,0,0,0,0,0l6,12.8C20.4,19.6,20.3,19.9,20,20.1C20,20.1,20,20.1,20,20.1"/>
					<path id="Stroke-19" class="st8" d="M22.3,14.5L8.5,21L2,7.1l13.8-6.5L22.3,14.5z"/>
				</g>
			</g>
			<g id="shape_1-copy-2" transform="rotate(68 413.767 750.948)">
				<g>
					<path class="st5" d="M20,20.1L7.2,26c-0.3,0.1-0.6,0-0.8-0.3c0,0,0,0,0,0L0.5,13c-0.1-0.3,0-0.6,0.3-0.8c0,0,0,0,0,0l12.8-6
						c0.3-0.1,0.7,0,0.8,0.3c0,0,0,0,0,0l6,12.8C20.4,19.6,20.3,19.9,20,20.1C20,20.1,20,20.1,20,20.1"/>
					<path class="st6" d="M22.3,14.5L8.5,21L2,7.1l13.8-6.5L22.3,14.5z"/>
				</g>
			</g>
			<g id="shape_4-copy" transform="rotate(-19 649.955 -3764.464)">
				<g id="Group-2">
					<path id="Path-4" class="st10" d="M9,0l0,18 M18,9L0,9"/>
				</g>
				<g id="Group" transform="translate(2 2)" class="st11">
					<path class="st10" d="M9,0l0,18 M18,9L0,9"/>
				</g>
			</g>
			<g transform="rotate(15 -1501.212 2419.95)">
				<g>
					<path class="st10" d="M9,0l0,18 M18,9L0,9"/>
				</g>
				<g transform="translate(2 2)" class="st11">
					<path class="st10" d="M9,0l0,18 M18,9L0,9"/>
				</g>
			</g>
			<g id="shape_4-copy-2" transform="rotate(-28 1336.383 -2024.773)">
				<g>
					<path class="st12" d="M9,0l0,18 M18,9L0,9"/>
					<path class="st13" d="M11,2l0,18 M20,11L2,11"/>
				</g>
			</g>
			<g id="shape_5-copy-2" transform="translate(1671 364)">
				<g>
					<path class="st6" d="M0,9.8l9.2-9l9,9l8.3-8.3l9,9L44,2l8.5,8.5"/>
					<path class="st14" d="M3,9.8l9.2-9l9,9l8.3-8.3l9,9L47,2l8.5,8.5"/>
				</g>
			</g>
			<g transform="translate(420 299)">
				<g>
					<path class="st2" d="M0,9.8l9.2-9l9,9l8.3-8.3l9,9L44,2l8.5,8.5"/>
					<path class="st3" d="M3,9.8l9.2-9l9,9l8.3-8.3l9,9L47,2l8.5,8.5"/>
				</g>
			</g>
			<g transform="translate(392 819)">
				<g>
					<path class="st6" d="M0,9.8l9.2-9l9,9l8.3-8.3l9,9L44,2l8.5,8.5"/>
					<path class="st14" d="M3,9.8l9.2-9l9,9l8.3-8.3l9,9L47,2l8.5,8.5"/>
				</g>
			</g>
			<g transform="rotate(15 -4116.226 4479.707)">
				<g>
					<path class="st12" d="M9,0l0,18 M18,9L0,9"/>
					<path class="st13" d="M11,2l0,18 M20,11L2,11"/>
				</g>
			</g>
			<g id="shape_2-copy-3" transform="translate(1237 696)">
				<g>
					<path class="st5" d="M17.4,8.7c0,4.3-3.7,7.8-8.2,7.8S0.9,13,0.9,8.7c0-4.3,3.7-7.8,8.2-7.8S17.4,4.4,17.4,8.7"/>
					<path class="st6" d="M20.6,11.7c0,4.3-3.7,7.8-8.2,7.8S4.1,16,4.1,11.7s3.7-7.8,8.2-7.8S20.6,7.4,20.6,11.7z"/>
				</g>
			</g>
			<g transform="translate(1599 830)">
				<g>
					<path class="st4" d="M16.6,8.7c0,4.3-3.5,7.8-7.8,7.8S0.9,13,0.9,8.7s3.5-7.8,7.8-7.8S16.6,4.4,16.6,8.7"/>
					<path class="st0" d="M19.6,11.7c0,4.3-3.5,7.8-7.8,7.8S3.9,16,3.9,11.7s3.5-7.8,7.8-7.8S19.6,7.4,19.6,11.7z"/>
				</g>
			</g>
			<g transform="translate(1699 1510)">
				<g>
					<path class="st4" d="M16.6,8.7c0,4.3-3.5,7.8-7.8,7.8S0.9,13,0.9,8.7s3.5-7.8,7.8-7.8S16.6,4.4,16.6,8.7"/>
					<path class="st0" d="M19.6,11.7c0,4.3-3.5,7.8-7.8,7.8S3.9,16,3.9,11.7s3.5-7.8,7.8-7.8S19.6,7.4,19.6,11.7z"/>
				</g>
			</g>
			<g transform="translate(724 1045)">
				<g>
					<path class="st9" d="M20,20.1L7.2,26c-0.3,0.1-0.6,0-0.8-0.3c0,0,0,0,0,0L0.5,13c-0.1-0.3,0-0.6,0.3-0.8c0,0,0,0,0,0l12.8-6
						c0.3-0.1,0.7,0,0.8,0.3c0,0,0,0,0,0l6,12.8C20.4,19.6,20.3,19.9,20,20.1C20,20.1,20,20.1,20,20.1"/>
					<path class="st8" d="M22.3,14.5L8.5,21L2,7.1l13.8-6.5L22.3,14.5z"/>
				</g>
			</g>
			<g transform="rotate(-22 6134.415 -2547.514)">
				<g>
					<path class="st12" d="M9,0l0,18 M18,9L0,9"/>
					<path class="st13" d="M11,2l0,18 M20,11L2,11"/>
				</g>
			</g>
			<g transform="translate(479 2085)">
				<g>
					<path class="st5" d="M17.4,8.7c0,4.3-3.7,7.8-8.2,7.8S0.9,13,0.9,8.7c0-4.3,3.7-7.8,8.2-7.8S17.4,4.4,17.4,8.7"/>
					<path class="st6" d="M20.6,11.7c0,4.3-3.7,7.8-8.2,7.8S4.1,16,4.1,11.7s3.7-7.8,8.2-7.8S20.6,7.4,20.6,11.7z"/>
				</g>
			</g>
			<g id="shape_1-copy" transform="translate(768 2161)">
				<g>
					<path class="st4" d="M20,20.1L7.2,26c-0.3,0.1-0.6,0-0.8-0.3c0,0,0,0,0,0L0.5,13c-0.1-0.3,0-0.6,0.3-0.8c0,0,0,0,0,0l12.8-6
						c0.3-0.1,0.7,0,0.8,0.3c0,0,0,0,0,0l6,12.8C20.4,19.6,20.3,19.9,20,20.1C20,20.1,20,20.1,20,20.1"/>
					<path class="st0" d="M22.3,14.5L8.5,21L2,7.1l13.8-6.5L22.3,14.5z"/>
				</g>
			</g>
			<g transform="translate(1318 1622)">
				<g>
					<path class="st0" d="M0,9.8l9.2-9l9,9l8.3-8.3l9,9L44,2l8.5,8.5"/>
					<path class="st1" d="M3,9.8l9.2-9l9,9l8.3-8.3l9,9L47,2l8.5,8.5"/>
				</g>
			</g>
			<g transform="translate(247 2602)">
				<g>
					<path class="st7" d="M16.6,8.7c0,4.3-3.5,7.8-7.8,7.8S0.9,13,0.9,8.7s3.5-7.8,7.8-7.8S16.6,4.4,16.6,8.7"/>
					<path class="st8" d="M19.6,11.7c0,4.3-3.5,7.8-7.8,7.8S3.9,16,3.9,11.7s3.5-7.8,7.8-7.8S19.6,7.4,19.6,11.7z"/>
				</g>
			</g>
			<g id="shape_3" transform="translate(736 1510)">
				<g>
					<path class="st7" d="M20.4,3.5L4.3,5.4C4,5.4,3.9,5.6,3.9,5.9c0,0.1,0,0.2,0.1,0.2l9.6,13.1c0.2,0.3,0.6,0.2,0.8-0.1l6.5-14.9
						c0.1-0.2,0-0.5-0.2-0.6C20.6,3.5,20.5,3.5,20.4,3.5"/>
					<path class="st8" d="M18.7,0.1L1,2.1l10.6,14.3L18.7,0.1z"/>
				</g>
			</g>
			<g transform="rotate(15 -9078.913 7049.454)">
				<g>
					<path class="st12" d="M9,0l0,18 M18,9L0,9"/>
					<path class="st13" d="M11,2l0,18 M20,11L2,11"/>
				</g>
			</g>
			<g transform="translate(1109 2715)">
				<g>
					<path class="st5" d="M17.4,8.7c0,4.3-3.7,7.8-8.2,7.8S0.9,13,0.9,8.7c0-4.3,3.7-7.8,8.2-7.8S17.4,4.4,17.4,8.7"/>
					<path class="st6" d="M20.6,11.7c0,4.3-3.7,7.8-8.2,7.8S4.1,16,4.1,11.7s3.7-7.8,8.2-7.8S20.6,7.4,20.6,11.7z"/>
				</g>
			</g>
			<g transform="translate(915 2502)">
				<g>
					<path class="st7" d="M20.4,3.5L4.3,5.4C4,5.4,3.9,5.6,3.9,5.9c0,0.1,0,0.2,0.1,0.2l9.6,13.1c0.2,0.3,0.6,0.2,0.8-0.1l6.5-14.9
						c0.1-0.2,0-0.5-0.2-0.6C20.6,3.5,20.5,3.5,20.4,3.5"/>
					<path class="st8" d="M18.7,0.1L1,2.1l10.6,14.3L18.7,0.1z"/>
				</g>
			</g>
			<g transform="translate(1042 1919)">
				<g>
					<path class="st10" d="M9.4,0v18 M18.9,9H0"/>
				</g>
				<g transform="translate(2.1 2)" class="st11">
					<path class="st10" d="M9.4,0v18 M18.9,9H0"/>
				</g>
			</g>
			<g transform="translate(1552 2870)">
				<g>
					<path class="st7" d="M16.6,8.7c0,4.3-3.5,7.8-7.8,7.8S0.9,13,0.9,8.7s3.5-7.8,7.8-7.8S16.6,4.4,16.6,8.7"/>
					<path class="st8" d="M19.6,11.7c0,4.3-3.5,7.8-7.8,7.8S3.9,16,3.9,11.7s3.5-7.8,7.8-7.8S19.6,7.4,19.6,11.7z"/>
				</g>
			</g>
			<g transform="translate(496 3807)">
				<g>
					<path class="st7" d="M16.6,8.7c0,4.3-3.5,7.8-7.8,7.8S0.9,13,0.9,8.7s3.5-7.8,7.8-7.8S16.6,4.4,16.6,8.7"/>
					<path class="st8" d="M19.6,11.7c0,4.3-3.5,7.8-7.8,7.8S3.9,16,3.9,11.7s3.5-7.8,7.8-7.8S19.6,7.4,19.6,11.7z"/>
				</g>
			</g>
			<g transform="translate(1420 3285)">
				<g>
					<path class="st7" d="M16.6,8.7c0,4.3-3.5,7.8-7.8,7.8S0.9,13,0.9,8.7s3.5-7.8,7.8-7.8S16.6,4.4,16.6,8.7"/>
					<path class="st8" d="M19.6,11.7c0,4.3-3.5,7.8-7.8,7.8S3.9,16,3.9,11.7s3.5-7.8,7.8-7.8S19.6,7.4,19.6,11.7z"/>
				</g>
			</g>
			<g transform="rotate(-22 8370.247 -1731.178)">
				<g>
					<path class="st12" d="M9,0l0,18 M18,9L0,9"/>
					<path class="st13" d="M11,2l0,18 M20,11L2,11"/>
				</g>
			</g>
			<g transform="translate(1829 2257)">
				<g>
					<path class="st4" d="M20,20.1L7.2,26c-0.3,0.1-0.6,0-0.8-0.3c0,0,0,0,0,0L0.5,13c-0.1-0.3,0-0.6,0.3-0.8c0,0,0,0,0,0l12.8-6
						c0.3-0.1,0.7,0,0.8,0.3c0,0,0,0,0,0l6,12.8C20.4,19.6,20.3,19.9,20,20.1C20,20.1,20,20.1,20,20.1"/>
					<path class="st0" d="M22.3,14.5L8.5,21L2,7.1l13.8-6.5L22.3,14.5z"/>
				</g>
			</g>
			<g transform="translate(1031 3439)">
				<g>
					<path class="st5" d="M17.4,8.7c0,4.3-3.7,7.8-8.2,7.8S0.9,13,0.9,8.7c0-4.3,3.7-7.8,8.2-7.8S17.4,4.4,17.4,8.7"/>
					<path class="st6" d="M20.6,11.7c0,4.3-3.7,7.8-8.2,7.8S4.1,16,4.1,11.7s3.7-7.8,8.2-7.8S20.6,7.4,20.6,11.7z"/>
				</g>
			</g>
			<g transform="translate(1264 4607)">
				<g>
					<path class="st4" d="M16.6,8.7c0,4.3-3.5,7.8-7.8,7.8S0.9,13,0.9,8.7s3.5-7.8,7.8-7.8S16.6,4.4,16.6,8.7"/>
					<path class="st0" d="M19.6,11.7c0,4.3-3.5,7.8-7.8,7.8S3.9,16,3.9,11.7s3.5-7.8,7.8-7.8S19.6,7.4,19.6,11.7z"/>
				</g>
			</g>
			<g transform="translate(267 3206)">
				<g>
					<path class="st9" d="M20,20.1L7.2,26c-0.3,0.1-0.6,0-0.8-0.3c0,0,0,0,0,0L0.5,13c-0.1-0.3,0-0.6,0.3-0.8c0,0,0,0,0,0l12.8-6
						c0.3-0.1,0.7,0,0.8,0.3c0,0,0,0,0,0l6,12.8C20.4,19.6,20.3,19.9,20,20.1C20,20.1,20,20.1,20,20.1"/>
					<path class="st8" d="M22.3,14.5L8.5,21L2,7.1l13.8-6.5L22.3,14.5z"/>
				</g>
			</g>
			<g transform="translate(1526 3428)">
				<g>
					<path class="st6" d="M0,9.8l9.2-9l9,9l8.3-8.3l9,9L44,2l8.5,8.5"/>
					<path class="st14" d="M3,9.8l9.2-9l9,9l8.3-8.3l9,9L47,2l8.5,8.5"/>
				</g>
			</g>
			<g transform="rotate(15 -13998.387 5985.494)">
				<g>
					<path class="st12" d="M9,0l0,18 M18,9L0,9"/>
					<path class="st13" d="M11,2l0,18 M20,11L2,11"/>
				</g>
			</g>
			<g transform="rotate(15 -21093.237 9469.593)">
				<g>
					<path class="st10" d="M9,0l0,18 M18,9L0,9"/>
				</g>
				<g transform="translate(2 2)" class="st11">
					<path class="st10" d="M9,0l0,18 M18,9L0,9"/>
				</g>
			</g>
			<g transform="translate(1409 3741)">
				<g>
					<path class="st4" d="M16.6,8.7c0,4.3-3.5,7.8-7.8,7.8S0.9,13,0.9,8.7s3.5-7.8,7.8-7.8S16.6,4.4,16.6,8.7"/>
					<path class="st0" d="M19.6,11.7c0,4.3-3.5,7.8-7.8,7.8S3.9,16,3.9,11.7s3.5-7.8,7.8-7.8S19.6,7.4,19.6,11.7z"/>
				</g>
			</g>
			<g transform="translate(932 5054)">
				<g>
					<path class="st2" d="M0,9.8l9.2-9l9,9l8.3-8.3l9,9L44,2l8.5,8.5"/>
					<path class="st3" d="M3,9.8l9.2-9l9,9l8.3-8.3l9,9L47,2l8.5,8.5"/>
				</g>
			</g>
			<g transform="rotate(15 -10500.67 3763.162)">
				<g>
					<path class="st12" d="M9,0l0,18 M18,9L0,9"/>
					<path class="st13" d="M11,2l0,18 M20,11L2,11"/>
				</g>
			</g>
			<g transform="rotate(15 -15015.74 3070.97)">
				<g>
					<path class="st12" d="M9,0l0,18 M18,9L0,9"/>
					<path class="st13" d="M11,2l0,18 M20,11L2,11"/>
				</g>
			</g>
			<g transform="translate(1263 4160)">
				<g>
					<path class="st5" d="M17.4,8.7c0,4.3-3.7,7.8-8.2,7.8S0.9,13,0.9,8.7c0-4.3,3.7-7.8,8.2-7.8S17.4,4.4,17.4,8.7"/>
					<path class="st6" d="M20.6,11.7c0,4.3-3.7,7.8-8.2,7.8S4.1,16,4.1,11.7s3.7-7.8,8.2-7.8S20.6,7.4,20.6,11.7z"/>
				</g>
			</g>
			<g transform="translate(905 5435)">
				<g>
					<path class="st4" d="M16.6,8.7c0,4.3-3.5,7.8-7.8,7.8S0.9,13,0.9,8.7s3.5-7.8,7.8-7.8S16.6,4.4,16.6,8.7"/>
					<path class="st0" d="M19.6,11.7c0,4.3-3.5,7.8-7.8,7.8S3.9,16,3.9,11.7s3.5-7.8,7.8-7.8S19.6,7.4,19.6,11.7z"/>
				</g>
			</g>
			<g transform="translate(559 4201)">
				<g>
					<path class="st4" d="M16.6,8.7c0,4.3-3.5,7.8-7.8,7.8S0.9,13,0.9,8.7s3.5-7.8,7.8-7.8S16.6,4.4,16.6,8.7"/>
					<path class="st0" d="M19.6,11.7c0,4.3-3.5,7.8-7.8,7.8S3.9,16,3.9,11.7s3.5-7.8,7.8-7.8S19.6,7.4,19.6,11.7z"/>
				</g>
			</g>
			<g transform="translate(959 4395)">
				<g>
					<path class="st9" d="M20,20.1L7.2,26c-0.3,0.1-0.6,0-0.8-0.3c0,0,0,0,0,0L0.5,13c-0.1-0.3,0-0.6,0.3-0.8c0,0,0,0,0,0l12.8-6
						c0.3-0.1,0.7,0,0.8,0.3c0,0,0,0,0,0l6,12.8C20.4,19.6,20.3,19.9,20,20.1C20,20.1,20,20.1,20,20.1"/>
					<path class="st8" d="M22.3,14.5L8.5,21L2,7.1l13.8-6.5L22.3,14.5z"/>
				</g>
			</g>
			<g transform="translate(494 5272)">
				<g>
					<path class="st9" d="M20,20.1L7.2,26c-0.3,0.1-0.6,0-0.8-0.3c0,0,0,0,0,0L0.5,13c-0.1-0.3,0-0.6,0.3-0.8c0,0,0,0,0,0l12.8-6
						c0.3-0.1,0.7,0,0.8,0.3c0,0,0,0,0,0l6,12.8C20.4,19.6,20.3,19.9,20,20.1C20,20.1,20,20.1,20,20.1"/>
					<path class="st8" d="M22.3,14.5L8.5,21L2,7.1l13.8-6.5L22.3,14.5z"/>
				</g>
			</g>
			<g transform="translate(1553 4283)">
				<g>
					<path class="st6" d="M0,9.8l9.2-9l9,9l8.3-8.3l9,9L44,2l8.5,8.5"/>
					<path class="st14" d="M3,9.8l9.2-9l9,9l8.3-8.3l9,9L47,2l8.5,8.5"/>
				</g>
			</g>
			<g transform="translate(234 5922)">
				<g>
					<path class="st0" d="M0,9.8l9.2-9l9,9l8.3-8.3l9,9L44,2l8.5,8.5"/>
					<path class="st1" d="M3,9.8l9.2-9l9,9l8.3-8.3l9,9L47,2l8.5,8.5"/>
				</g>
			</g>
			<g transform="rotate(42 -6099.143 3289.312)">
				<g>
					<path class="st4" d="M20.4,3.5L4.3,5.4C4,5.4,3.9,5.6,3.9,5.9c0,0.1,0,0.2,0.1,0.2l9.6,13.1c0.2,0.3,0.6,0.2,0.8-0.1l6.5-14.9
						c0.1-0.2,0-0.5-0.2-0.6C20.6,3.5,20.5,3.5,20.4,3.5"/>
					<path class="st0" d="M18.7,0.1L1,2.1l10.6,14.3L18.7,0.1z"/>
				</g>
			</g>
			<g transform="rotate(42 -6319.864 4583.07)">
				<g>
					<path class="st5" d="M20.4,3.5L4.3,5.4C4,5.4,3.9,5.6,3.9,5.9c0,0.1,0,0.2,0.1,0.2l9.6,13.1c0.2,0.3,0.6,0.2,0.8-0.1l6.5-14.9
						c0.1-0.2,0-0.5-0.2-0.6C20.6,3.5,20.5,3.5,20.4,3.5"/>
					<path class="st6" d="M18.7,0.1L1,2.1l10.6,14.3L18.7,0.1z"/>
				</g>
			</g>
			<g transform="rotate(42 -7047.121 4152.361)">
				<g>
					<path class="st5" d="M20.4,3.5L4.3,5.4C4,5.4,3.9,5.6,3.9,5.9c0,0.1,0,0.2,0.1,0.2l9.6,13.1c0.2,0.3,0.6,0.2,0.8-0.1l6.5-14.9
						c0.1-0.2,0-0.5-0.2-0.6C20.6,3.5,20.5,3.5,20.4,3.5"/>
					<path class="st6" d="M18.7,0.1L1,2.1l10.6,14.3L18.7,0.1z"/>
				</g>
			</g>
			<g transform="rotate(42 -5927.583 2879.726)">
				<g>
					<path class="st5" d="M20.4,3.5L4.3,5.4C4,5.4,3.9,5.6,3.9,5.9c0,0.1,0,0.2,0.1,0.2l9.6,13.1c0.2,0.3,0.6,0.2,0.8-0.1l6.5-14.9
						c0.1-0.2,0-0.5-0.2-0.6C20.6,3.5,20.5,3.5,20.4,3.5"/>
					<path class="st6" d="M18.7,0.1L1,2.1l10.6,14.3L18.7,0.1z"/>
				</g>
			</g>
			<g id="shape_6" transform="rotate(19 -13911.341 6899.788)">
				<g id="Group-4">
					<path class="st15" d="M1.6,20.1L0.7,2.3l0-2.3l3.6,0l0,2.3l-1,17.8C3.3,20.1,1.6,20.1,1.6,20.1z M0.6,28l0-4.2h3.7l0,4.2H0.6z"
						/>
					<path class="st7" d="M2.6,21.1L1.7,3.3l0-2.3l3.6,0l0,2.3l-1,17.8C4.3,21.1,2.6,21.1,2.6,21.1z M1.6,29l0-4.2h3.7l0,4.2
						C5.3,29,1.6,29,1.6,29z"/>
				</g>
			</g>
		</g>
	</g>
</g>
</svg>
